<?xml version="1.0" encoding="utf-8"?>
<!-- Generator: Adobe Illustrator 25.0.1, SVG Export Plug-In . SVG Version: 6.00 Build 0)  -->
<svg version="1.1" id="Layer_1" xmlns="http://www.w3.org/2000/svg" xmlns:xlink="http://www.w3.org/1999/xlink" x="0px" y="0px"
	 viewBox="0 0 40 40" style="enable-background:new 0 0 40 40;" xml:space="preserve">
<style type="text/css">
	.st0{fill:#FFFFFF;}
	.st1{fill:#00B419;}
</style>
<g id="_x36__6_">
	<g>
		<path class="st0" d="M30,23v-8c0-5.5-4.5-10-10-10S10,9.5,10,15v8l-4,8h9.1c0.5,2.3,2.5,4,4.9,4s4.4-1.7,4.9-4H34L30,23z M20,33
			c-1.3,0-2.4-0.8-2.8-2h5.6C22.4,32.2,21.3,33,20,33z M9,29l3-6v-8c0-4.4,3.6-8,8-8s8,3.6,8,8v8l3,6H9z"/>
	</g>
</g>
<circle class="st1" cx="34" cy="7" r="5.6"/>
</svg>
